<?xml version="1.0" encoding="UTF-8" standalone="no"?><svg xmlns="http://www.w3.org/2000/svg" xmlns:xlink="http://www.w3.org/1999/xlink" contentScriptType="application/ecmascript" contentStyleType="text/css" height="226px" preserveAspectRatio="none" style="width:318px;height:226px;" version="1.1" viewBox="0 0 318 226" width="318px" zoomAndPan="magnify"><defs/><g><!--MD5=[e80bd461753d6c5ec111731420959425]
cluster Main--><path d="M25,29 L59,29 A4.5,4.5 0 0 1 62,32 L69,48.9688 L91,48.9688 A3,3 0 0 1 94,51.9688 L94,100 A3,3 0 0 1 91,103 L25,103 A3,3 0 0 1 22,100 L22,32 A3,3 0 0 1 25,29 " fill="#FFFFFF" style="stroke: #000000; stroke-width: 1.5;"/><line style="stroke: #000000; stroke-width: 1.5;" x1="22" x2="69" y1="48.9688" y2="48.9688"/><text fill="#000000" font-family="Tahoma, sans-serif" font-size="12" font-weight="bold" lengthAdjust="spacingAndGlyphs" textLength="34" x="26" y="42.1387">Main</text><!--MD5=[ed1d20ea533a2a0e7df5ba3c35e56ced]
cluster Controllers--><path d="M121,24 L203,24 A4.5,4.5 0 0 1 206,27 L213,43.9688 L303,43.9688 A3,3 0 0 1 306,46.9688 L306,105 A3,3 0 0 1 303,108 L121,108 A3,3 0 0 1 118,105 L118,27 A3,3 0 0 1 121,24 " fill="#FFFFFF" style="stroke: #000000; stroke-width: 1.5;"/><line style="stroke: #000000; stroke-width: 1.5;" x1="118" x2="213" y1="43.9688" y2="43.9688"/><text fill="#000000" font-family="Tahoma, sans-serif" font-size="12" font-weight="bold" lengthAdjust="spacingAndGlyphs" textLength="82" x="122" y="37.1387">Controllers</text><!--MD5=[114f4823940f317c08f5bedd633c9afd]
cluster Entities--><path d="M153,132 L209,132 A4.5,4.5 0 0 1 212,135 L219,151.9688 L271,151.9688 A3,3 0 0 1 274,154.9688 L274,211 A3,3 0 0 1 271,214 L153,214 A3,3 0 0 1 150,211 L150,135 A3,3 0 0 1 153,132 " fill="#FFFFFF" style="stroke: #000000; stroke-width: 1.5;"/><line style="stroke: #000000; stroke-width: 1.5;" x1="150" x2="219" y1="151.9688" y2="151.9688"/><text fill="#000000" font-family="Tahoma, sans-serif" font-size="12" font-weight="bold" lengthAdjust="spacingAndGlyphs" textLength="56" x="154" y="145.1387">Entities</text><ellipse cx="57.7635" cy="73.8774" fill="#F8F8F8" rx="19.2635" ry="12.8774" style="stroke: #383838; stroke-width: 0.5;"/><text fill="#000000" font-family="Tahoma, sans-serif" font-size="12" font-weight="bold" lengthAdjust="spacingAndGlyphs" textLength="23" x="46.2635" y="77.3618">src</text><ellipse cx="212.1118" cy="74.0224" fill="#F8F8F8" rx="78.1118" ry="18.0224" style="stroke: #383838; stroke-width: 0.5;"/><text fill="#000000" font-family="Tahoma, sans-serif" font-size="12" lengthAdjust="spacingAndGlyphs" textLength="133" x="145.6118" y="77.5067">TripleCheckController</text><!--MD5=[b5c4cf7b7176747f27a81aab0e8b631f]
entity _TripleCheck--><rect fill="#F8F8F8" height="33.9688" rx="3" ry="3" style="stroke: #000000; stroke-width: 0.5;" width="92" x="166" y="164"/><text fill="#000000" font-family="Tahoma, sans-serif" font-size="12" lengthAdjust="spacingAndGlyphs" textLength="72" x="176" y="185.1387">TripleCheck</text><!--MD5=[bf759f5f917f40bd7d09edefd14f7a40]
link <b>src</b> to TripleCheckController--><path d="M77.5508,74 C94.5265,74 111.502,74 128.478,74 " fill="none" id="&lt;b&gt;src&lt;/b&gt;-&gt;TripleCheckController" style="stroke: #000000; stroke-width: 1.0;"/><polygon fill="#000000" points="133.746,74,124.746,70,128.746,74,124.746,78,133.746,74" style="stroke: #000000; stroke-width: 1.0;"/><!--MD5=[8594e91b741c6646958e53c4b2d07df4]
link TripleCheckController to _TripleCheck--><path d="M212,92.339 C212,110.441 212,138.8654 212,158.4114 " fill="none" id="TripleCheckController-&gt;_TripleCheck" style="stroke: #000000; stroke-width: 0.5;"/><polygon fill="#000000" points="212,163.673,216,154.673,212,158.673,208,154.673,212,163.673" style="stroke: #000000; stroke-width: 0.5;"/><script type="text/plantuml"><![CDATA[MD5=[c3f1d0b94e0fef6dabe202458f047592]
@startuml

scale max 1920 width
top to bottom direction

skinparam nodesep 11
skinparam ranksep 22
skinparam monochrome true
skinparam shadowing false
skinparam defaultFontName Tahoma
skinparam defaultFontSize 12
skinparam roundCorner 6
skinparam dpi 150
skinparam arrowColor black
skinparam arrowThickness 0.5
skinparam packageTitleAlignment left

skinparam usecase {
  borderThickness 0.5
}

skinparam rectangle {
  borderThickness 0.5
}

skinparam component {
  borderThickness 1
}


package "Main" {
  (<b>src</b>)
}

package "Controllers" {
  (TripleCheckController)
}


package "Entities" {
  rectangle "TripleCheck" as _TripleCheck
}

(<b>src</b>) -[thickness=1]> (TripleCheckController)
(TripleCheckController) --> _TripleCheck

@enduml


' View and edit on https://arkit.pro
]]></script></g></svg>