<?xml version="1.0" encoding="UTF-8" standalone="no"?><svg xmlns="http://www.w3.org/2000/svg" xmlns:xlink="http://www.w3.org/1999/xlink" contentScriptType="application/ecmascript" contentStyleType="text/css" height="226px" preserveAspectRatio="none" style="width:306px;height:226px;" version="1.1" viewBox="0 0 306 226" width="306px" zoomAndPan="magnify"><defs/><g><!--MD5=[e80bd461753d6c5ec111731420959425]
cluster Main--><path d="M25,28 L55,28 A4.5,4.5 0 0 1 58,31 L65,48.4844 L87,48.4844 A3,3 0 0 1 90,51.4844 L90,100 A3,3 0 0 1 87,103 L25,103 A3,3 0 0 1 22,100 L22,31 A3,3 0 0 1 25,28 " fill="#FFFFFF" style="stroke: #000000; stroke-width: 1.5;"/><line style="stroke: #000000; stroke-width: 1.5;" x1="22" x2="65" y1="48.4844" y2="48.4844"/><text fill="#000000" font-family="Tahoma, sans-serif" font-size="12" font-weight="bold" lengthAdjust="spacingAndGlyphs" textLength="30" x="26" y="42.0059">Main</text><!--MD5=[ed1d20ea533a2a0e7df5ba3c35e56ced]
cluster Controllers--><path d="M117,24 L191,24 A4.5,4.5 0 0 1 194,27 L201,44.4844 L291,44.4844 A3,3 0 0 1 294,47.4844 L294,104 A3,3 0 0 1 291,107 L117,107 A3,3 0 0 1 114,104 L114,27 A3,3 0 0 1 117,24 " fill="#FFFFFF" style="stroke: #000000; stroke-width: 1.5;"/><line style="stroke: #000000; stroke-width: 1.5;" x1="114" x2="201" y1="44.4844" y2="44.4844"/><text fill="#000000" font-family="Tahoma, sans-serif" font-size="12" font-weight="bold" lengthAdjust="spacingAndGlyphs" textLength="74" x="118" y="38.0059">Controllers</text><!--MD5=[114f4823940f317c08f5bedd633c9afd]
cluster Entities--><path d="M148,131 L198,131 A4.5,4.5 0 0 1 201,134 L208,151.4844 L260,151.4844 A3,3 0 0 1 263,154.4844 L263,211 A3,3 0 0 1 260,214 L148,214 A3,3 0 0 1 145,211 L145,134 A3,3 0 0 1 148,131 " fill="#FFFFFF" style="stroke: #000000; stroke-width: 1.5;"/><line style="stroke: #000000; stroke-width: 1.5;" x1="145" x2="208" y1="151.4844" y2="151.4844"/><text fill="#000000" font-family="Tahoma, sans-serif" font-size="12" font-weight="bold" lengthAdjust="spacingAndGlyphs" textLength="50" x="149" y="145.0059">Entities</text><ellipse cx="55.8492" cy="74.242" fill="#F8F8F8" rx="17.8492" ry="13.242" style="stroke: #383838; stroke-width: 0.5;"/><text fill="#000000" font-family="Tahoma, sans-serif" font-size="12" font-weight="bold" lengthAdjust="spacingAndGlyphs" textLength="21" x="45.3492" y="77.9842">src</text><ellipse cx="203.9382" cy="74.1876" fill="#F8F8F8" rx="73.9382" ry="17.1876" style="stroke: #383838; stroke-width: 0.5;"/><text fill="#000000" font-family="Tahoma, sans-serif" font-size="12" lengthAdjust="spacingAndGlyphs" textLength="122" x="142.9382" y="77.9298">TripleCheckController</text><!--MD5=[b5c4cf7b7176747f27a81aab0e8b631f]
entity _TripleCheck--><rect fill="#F8F8F8" height="34.4844" rx="3" ry="3" style="stroke: #000000; stroke-width: 0.5;" width="86" x="161" y="164"/><text fill="#000000" font-family="Tahoma, sans-serif" font-size="12" lengthAdjust="spacingAndGlyphs" textLength="66" x="171" y="186.0059">TripleCheck</text><!--MD5=[bf759f5f917f40bd7d09edefd14f7a40]
link <b>src</b> to TripleCheckController--><path d="M74.2109,74 C91.0577,74 107.905,74 124.751,74 " fill="none" id="&lt;b&gt;src&lt;/b&gt;-&gt;TripleCheckController" style="stroke: #000000; stroke-width: 1.0;"/><polygon fill="#000000" points="129.98,74,120.98,70,124.98,74,120.98,78,129.98,74" style="stroke: #000000; stroke-width: 1.0;"/><!--MD5=[8594e91b741c6646958e53c4b2d07df4]
link TripleCheckController to _TripleCheck--><path d="M204,91.406 C204,109.514 204,138.7251 204,158.6147 " fill="none" id="TripleCheckController-&gt;_TripleCheck" style="stroke: #000000; stroke-width: 0.5;"/><polygon fill="#000000" points="204,163.709,208,154.709,204,158.709,200,154.709,204,163.709" style="stroke: #000000; stroke-width: 0.5;"/><script type="text/plantuml"><![CDATA[MD5=[c3f1d0b94e0fef6dabe202458f047592]
@startuml

scale max 1920 width
top to bottom direction

skinparam nodesep 11
skinparam ranksep 22
skinparam monochrome true
skinparam shadowing false
skinparam defaultFontName Tahoma
skinparam defaultFontSize 12
skinparam roundCorner 6
skinparam dpi 150
skinparam arrowColor black
skinparam arrowThickness 0.5
skinparam packageTitleAlignment left

skinparam usecase {
  borderThickness 0.5
}

skinparam rectangle {
  borderThickness 0.5
}

skinparam component {
  borderThickness 1
}


package "Main" {
  (<b>src</b>)
}

package "Controllers" {
  (TripleCheckController)
}


package "Entities" {
  rectangle "TripleCheck" as _TripleCheck
}

(<b>src</b>) -[thickness=1]> (TripleCheckController)
(TripleCheckController) --> _TripleCheck

@enduml


' View and edit on https://arkit.pro
]]></script></g></svg>